<?xml version="1.0" encoding="UTF-8" standalone="no"?>
<!-- Created with Inkscape (http://www.inkscape.org/) -->

<svg
   version="1.1"
   id="svg1"
   width="155.9762"
   height="146.37624"
   viewBox="0 0 155.9762 146.37623"
   sodipodi:docname="base.svg"
   xml:space="preserve"
   inkscape:version="1.3.2 (091e20e, 2023-11-25, custom)"
   inkscape:export-filename="..\..\..\TD2_Maps.github.io\images\OverlayPS4-VirtualValhalla\face.svg"
   inkscape:export-xdpi="24"
   inkscape:export-ydpi="24"
   xmlns:inkscape="http://www.inkscape.org/namespaces/inkscape"
   xmlns:sodipodi="http://sodipodi.sourceforge.net/DTD/sodipodi-0.dtd"
   xmlns="http://www.w3.org/2000/svg"
   xmlns:svg="http://www.w3.org/2000/svg"><defs
     id="defs1"><linearGradient
       id="swatch9"
       inkscape:swatch="solid"><stop
         style="stop-color:#21008c;stop-opacity:1;"
         offset="0"
         id="stop9" /></linearGradient><linearGradient
       id="swatch8"
       inkscape:swatch="solid"><stop
         style="stop-color:#4b0087;stop-opacity:1;"
         offset="0"
         id="stop8" /></linearGradient><style
       id="style1">
      .cls-1 {
        fill: none;
      }

      .cls-2 {
        fill: #b3b3b3;
      }

      .cls-3 {
        fill: #0d0e13;
      }

      .cls-4 {
        opacity: 0.06;
      }

      .cls-5 {
        fill: #fff;
      }

      .cls-6 {
        fill: #13161f;
      }

      .cls-7 {
        fill: #0f1015;
      }

      .cls-8 {
        fill: #121212;
      }

      .cls-9 {
        fill: #080808;
      }

      .cls-10 {
        fill: #1f1f1f;
      }

      .cls-11 {
        fill: #e6e6e6;
        opacity: 0.1;
      }

      .cls-11, .cls-12, .cls-13, .cls-14, .cls-17 {
        isolation: isolate;
      }

      .cls-12, .cls-14, .cls-29 {
        opacity: 0.08;
      }

      .cls-12 {
        fill: url(#SVGID_4_);
      }

      .cls-13 {
        opacity: 0.22;
      }

      .cls-14 {
        fill: url(#SVGID_5_);
      }

      .cls-15 {
        fill: #10111a;
      }

      .cls-16 {
        fill: #1a1a1a;
      }

      .cls-17 {
        opacity: 0.25;
      }

      .cls-18 {
        opacity: 0.12;
      }

      .cls-19 {
        fill: #0b0b0f;
      }

      .cls-20 {
        fill: url(#SVGID_6_);
      }

      .cls-21 {
        fill: #0f0f0f;
      }

      .cls-22 {
        fill: #f66;
      }

      .cls-23 {
        fill: #7cb2e8;
      }

      .cls-24 {
        fill: #ff69f8;
      }

      .cls-25 {
        fill: #40e2a0;
      }

      .cls-26 {
        fill: #050505;
        stroke: #000;
        stroke-miterlimit: 10;
        stroke-width: 2px;
      }

      .cls-27 {
        fill: #f2f2f2;
      }

      .cls-28 {
        fill: #0a0a0a;
      }

      .cls-30 {
        fill: #ccc;
      }
    </style><style
       id="style1-1">
      .cls-1 {
        fill: #0f0f0f;
      }

      .cls-2 {
        fill: #121212;
      }

      .cls-3 {
        fill: #141414;
      }

      .cls-4 {
        fill: #f0f0f0;
      }

      .cls-5 {
        fill: #ededed;
      }

      .cls-6 {
        fill: #ebebeb;
      }
    </style></defs><sodipodi:namedview
     id="namedview1"
     pagecolor="#ffffff"
     bordercolor="#666666"
     borderopacity="1.0"
     inkscape:showpageshadow="2"
     inkscape:pageopacity="0.0"
     inkscape:pagecheckerboard="true"
     inkscape:deskcolor="#969696"
     showgrid="false"
     inkscape:zoom="0.98641396"
     inkscape:cx="459.23924"
     inkscape:cy="222.52321"
     inkscape:window-width="1920"
     inkscape:window-height="1009"
     inkscape:window-x="3832"
     inkscape:window-y="-8"
     inkscape:window-maximized="1"
     inkscape:current-layer="g1" /><g
     inkscape:groupmode="layer"
     inkscape:label="Image"
     id="g1"
     transform="matrix(1.2214983,0,0,1.2214983,-578.45179,-59.69998)"
     style="display:inline"
     inkscape:export-filename="BTTF01\BTTF01.png"
     inkscape:export-xdpi="24"
     inkscape:export-ydpi="24"><g
       id="g57"
       transform="matrix(0.68636381,0,0,0.68636381,522.77927,142.50877)"
       inkscape:label="ABXY"
       style="display:inline"><g
         id="g48"
         transform="translate(3.3307202,-75.947847)"><g
           id="g47"><path
             class="cls-7"
             d="M 83.8,53.5 A 26.25,26.25 0 1 1 110,27.2 26.33,26.33 0 0 1 83.8,53.5 Z"
             id="path46"
             style="fill:#1a1a1a" /><path
             class="cls-8"
             d="M 83.8,2 A 25.25,25.25 0 1 1 58.5,27.3 25.24,25.24 0 0 1 83.8,2 m 0,-2 A 27.3,27.3 0 1 0 111,27.3 27.34,27.34 0 0 0 83.8,0 Z"
             id="path47"
             style="fill:#0f0f0f" /></g><path
           class="cls-9"
           d="M 83.8,8.4 A 18.9,18.9 0 1 0 102.7,27.3 18.95,18.95 0 0 0 83.8,8.4 Z m 0,34.9 a 16,16 0 1 1 16,-16 16,16 0 0 1 -16,16 z"
           id="path48"
           style="fill:#f16667" /></g><g
         id="g51"
         transform="translate(-3.127687,-16.429332)"><g
           id="g50"><path
             class="cls-7"
             d="M 27.2,53.5 A 26.25,26.25 0 1 1 53.5,27.3 26.29,26.29 0 0 1 27.2,53.5 Z"
             id="path49"
             style="fill:#1a1a1a" /><path
             class="cls-8"
             d="M 27.3,2 A 25.25,25.25 0 1 1 2,27.3 25.33,25.33 0 0 1 27.3,2 m 0,-2 A 27.3,27.3 0 1 0 54.6,27.3 27.27,27.27 0 0 0 27.3,0 Z"
             id="path50"
             style="fill:#0f0f0f" /></g><polygon
           class="cls-10"
           points="29.3,27.2 41.6,14.9 39.6,12.9 27.3,25.2 14.9,12.9 12.9,14.9 25.2,27.2 12.9,39.6 14.9,41.6 27.3,29.3 39.6,41.6 41.6,39.6 "
           id="polygon50"
           style="fill:#7fb1df" /></g><g
         id="g53"
         transform="translate(-184.81138,-77.125133)"><g
           id="g52"><path
             class="cls-7"
             d="M 140.3,54.2 A 26.25,26.25 0 1 1 166.6,28 26.23,26.23 0 0 1 140.3,54.2 Z"
             id="path51"
             style="fill:#1a1a1a" /><path
             class="cls-8"
             d="M 140.3,2.7 A 25.25,25.25 0 1 1 115,27.9 25.33,25.33 0 0 1 140.3,2.7 m 0,-2 A 27.25,27.25 0 1 0 167.6,28 27.34,27.34 0 0 0 140.3,0.7 Z"
             id="path52"
             style="fill:#0f0f0f" /></g><path
           class="cls-11"
           d="M 151.8,13.5 H 126 v 28.6 h 28.6 V 13.5 Z m 0,25.9 h -23 v -23 h 23 z"
           id="path53"
           style="fill:#cb79b1" /></g><g
         id="g56"
         transform="translate(-177.77583,-137.72074)"><g
           id="g55"><path
             class="cls-7"
             d="M 196.7,54.8 A 26.3,26.3 0 1 1 223,28.6 26.33,26.33 0 0 1 196.7,54.8 Z"
             id="path54"
             style="fill:#1a1a1a" /><path
             class="cls-8"
             d="M 196.8,3.3 A 25.3,25.3 0 1 1 171.5,28.6 25.33,25.33 0 0 1 196.8,3.3 m 0,-2 A 27.3,27.3 0 1 0 224,28.6 27.34,27.34 0 0 0 196.8,1.3 Z"
             id="path55"
             style="fill:#0f0f0f" /></g><path
           class="cls-12"
           d="m 212.7,36.6 -16,-27.6 -16,27.6 -1.6,2.8 h 35.2 z m -15.9,0 h -12.7 l 12.7,-21.9 12.7,21.9 z"
           id="path56"
           style="fill:#66c194" /></g></g></g></svg>
