<?xml version="1.0" encoding="UTF-8" standalone="no"?>
<!-- Created with Inkscape (http://www.inkscape.org/) -->

<svg
   version="1.1"
   id="svg1"
   width="41.989929"
   height="41.5802"
   viewBox="0 0 41.989929 41.5802"
   sodipodi:docname="base.svg"
   xml:space="preserve"
   inkscape:version="1.3.2 (091e20e, 2023-11-25, custom)"
   inkscape:export-filename="..\..\..\TD2_Maps.github.io\images\OverlayPS4-VirtualValhalla\face.svg"
   inkscape:export-xdpi="24"
   inkscape:export-ydpi="24"
   xmlns:inkscape="http://www.inkscape.org/namespaces/inkscape"
   xmlns:sodipodi="http://sodipodi.sourceforge.net/DTD/sodipodi-0.dtd"
   xmlns="http://www.w3.org/2000/svg"
   xmlns:svg="http://www.w3.org/2000/svg"><defs
     id="defs1"><linearGradient
       id="swatch9"
       inkscape:swatch="solid"><stop
         style="stop-color:#21008c;stop-opacity:1;"
         offset="0"
         id="stop9" /></linearGradient><linearGradient
       id="swatch8"
       inkscape:swatch="solid"><stop
         style="stop-color:#4b0087;stop-opacity:1;"
         offset="0"
         id="stop8" /></linearGradient><style
       id="style1">
      .cls-1 {
        fill: none;
      }

      .cls-2 {
        fill: #b3b3b3;
      }

      .cls-3 {
        fill: #0d0e13;
      }

      .cls-4 {
        opacity: 0.06;
      }

      .cls-5 {
        fill: #fff;
      }

      .cls-6 {
        fill: #13161f;
      }

      .cls-7 {
        fill: #0f1015;
      }

      .cls-8 {
        fill: #121212;
      }

      .cls-9 {
        fill: #080808;
      }

      .cls-10 {
        fill: #1f1f1f;
      }

      .cls-11 {
        fill: #e6e6e6;
        opacity: 0.1;
      }

      .cls-11, .cls-12, .cls-13, .cls-14, .cls-17 {
        isolation: isolate;
      }

      .cls-12, .cls-14, .cls-29 {
        opacity: 0.08;
      }

      .cls-12 {
        fill: url(#SVGID_4_);
      }

      .cls-13 {
        opacity: 0.22;
      }

      .cls-14 {
        fill: url(#SVGID_5_);
      }

      .cls-15 {
        fill: #10111a;
      }

      .cls-16 {
        fill: #1a1a1a;
      }

      .cls-17 {
        opacity: 0.25;
      }

      .cls-18 {
        opacity: 0.12;
      }

      .cls-19 {
        fill: #0b0b0f;
      }

      .cls-20 {
        fill: url(#SVGID_6_);
      }

      .cls-21 {
        fill: #0f0f0f;
      }

      .cls-22 {
        fill: #f66;
      }

      .cls-23 {
        fill: #7cb2e8;
      }

      .cls-24 {
        fill: #ff69f8;
      }

      .cls-25 {
        fill: #40e2a0;
      }

      .cls-26 {
        fill: #050505;
        stroke: #000;
        stroke-miterlimit: 10;
        stroke-width: 2px;
      }

      .cls-27 {
        fill: #f2f2f2;
      }

      .cls-28 {
        fill: #0a0a0a;
      }

      .cls-30 {
        fill: #ccc;
      }
    </style><style
       id="style1-1">
      .cls-1 {
        fill: #0f0f0f;
      }

      .cls-2 {
        fill: #121212;
      }

      .cls-3 {
        fill: #141414;
      }

      .cls-4 {
        fill: #f0f0f0;
      }

      .cls-5 {
        fill: #ededed;
      }

      .cls-6 {
        fill: #ebebeb;
      }
    </style></defs><sodipodi:namedview
     id="namedview1"
     pagecolor="#ffffff"
     bordercolor="#666666"
     borderopacity="1.0"
     inkscape:showpageshadow="2"
     inkscape:pageopacity="0.0"
     inkscape:pagecheckerboard="true"
     inkscape:deskcolor="#969696"
     showgrid="false"
     inkscape:zoom="0.98641396"
     inkscape:cx="459.23924"
     inkscape:cy="222.52321"
     inkscape:window-width="1920"
     inkscape:window-height="1009"
     inkscape:window-x="3832"
     inkscape:window-y="-8"
     inkscape:window-maximized="1"
     inkscape:current-layer="g1" /><g
     inkscape:groupmode="layer"
     inkscape:label="Image"
     id="g1"
     transform="matrix(1.2214983,0,0,1.2214983,-391.5568,-215.11598)"
     style="display:inline"
     inkscape:export-filename="BTTF01\BTTF01.png"
     inkscape:export-xdpi="24"
     inkscape:export-ydpi="24"><g
       id="g5"
       style="display:inline;fill:#4b0087;fill-opacity:0.659758"
       inkscape:label="PS META BUTTON"
       transform="matrix(0.81113086,0,0,0.79500503,10.860767,-94.83332)"><ellipse
         class="cls-26"
         cx="402.99493"
         cy="362.21378"
         id="ellipse1"
         inkscape:label="circle107"
         inkscape:highlight-color="#ff0101"
         style="display:inline;fill:#4b0087;fill-opacity:0.659758"
         rx="20.190016"
         ry="20.408873" /><g
         id="g4"
         inkscape:label="PS META BUTTON"
         style="fill:#ffffff;fill-opacity:1"><g
           id="g3"
           inkscape:label="LOGO PS META"
           style="display:inline;fill:#ffffff;fill-opacity:1"><path
             class="cls-27"
             d="m 404.1,368.6 v -12.8 a 1.33,1.33 0 0 1 0.3,-1 0.57,0.57 0 0 1 0.7,-0.2 c 0.6,0.2 0.9,0.7 0.9,1.7 v 6.9 a 4.55,4.55 0 0 0 2.1,0.5 2.77,2.77 0 0 0 1.6,-0.5 c 1,-0.7 1.5,-1.9 1.5,-3.7 a 6.49,6.49 0 0 0 -1.2,-4.3 8.79,8.79 0 0 0 -4.1,-2.6 c -1.3,-0.4 -2.5,-0.8 -3.6,-1.1 -1.1,-0.3 -2,-0.5 -2.9,-0.7 v 12.2 0 2.7 0 1.7 0 2.5 0 1.5 l 4.7,1.5 v -3.6 0 z"
             id="path1"
             style="display:inline;fill:#ffffff;fill-opacity:1" /><path
             class="cls-27"
             d="m 399,367.6 -1.7,0.6 -0.9,0.4 -1.6,0.3 -1.5,-0.2 c -0.3,-0.2 -0.4,-0.4 -0.2,-0.6 0.2,-0.2 0.2,-0.1 0.3,-0.2 0.1,-0.1 0.3,-0.1 0.4,-0.2 l 1.1,-0.4 4.1,-1.5 v -2.7 l -1.7,0.5 -5.5,2 -1,0.4 c -1.5,0.6 -2.2,1.2 -2.2,1.8 0.1,0.8 1,1.5 2.7,1.9 a 15.21,15.21 0 0 0 4.3,0.5 20.2,20.2 0 0 0 3.3,-0.3 v -2.3 z"
             id="path2"
             style="display:inline;fill:#ffffff;fill-opacity:1" /><path
             class="cls-27"
             d="m 414.8,365.3 a 12.88,12.88 0 0 0 -2.5,-0.6 10.48,10.48 0 0 0 -2.5,-0.1 26.6,26.6 0 0 0 -2.8,0.3 15.25,15.25 0 0 0 -2.6,0.8 v 2.8 l 3.9,-1.4 1.6,-0.5 1.1,-0.3 h 1.4 c 0.3,0.1 0.6,0.2 0.7,0.4 0.1,0.2 -0.2,0.4 -0.8,0.6 l -1.4,0.5 -6.5,2.4 v 2.7 l 3.5,-1.3 6.4,-2.3 0.7,-0.4 c 1.5,-0.5 2.2,-1.2 2.2,-1.9 0,-0.7 -0.8,-1.2 -2.4,-1.7 z"
             id="path3"
             style="display:inline;fill:#ffffff;fill-opacity:1" /></g></g></g></g></svg>
