<?xml version="1.0" encoding="UTF-8" standalone="no"?>
<!-- Created with Inkscape (http://www.inkscape.org/) -->

<svg
   version="1.1"
   id="svg1"
   width="220.99998"
   height="100.64501"
   viewBox="0 0 220.99998 100.64501"
   sodipodi:docname="base.svg"
   xml:space="preserve"
   inkscape:version="1.3.2 (091e20e, 2023-11-25, custom)"
   xmlns:inkscape="http://www.inkscape.org/namespaces/inkscape"
   xmlns:sodipodi="http://sodipodi.sourceforge.net/DTD/sodipodi-0.dtd"
   xmlns="http://www.w3.org/2000/svg"
   xmlns:svg="http://www.w3.org/2000/svg"><defs
     id="defs1"><linearGradient
       id="swatch9"
       inkscape:swatch="solid"><stop
         style="stop-color:#21008c;stop-opacity:1;"
         offset="0"
         id="stop9" /></linearGradient><linearGradient
       id="swatch8"
       inkscape:swatch="solid"><stop
         style="stop-color:#4b0087;stop-opacity:1;"
         offset="0"
         id="stop8" /></linearGradient><style
       id="style1">
      .cls-1 {
        fill: none;
      }

      .cls-2 {
        fill: #b3b3b3;
      }

      .cls-3 {
        fill: #0d0e13;
      }

      .cls-4 {
        opacity: 0.06;
      }

      .cls-5 {
        fill: #fff;
      }

      .cls-6 {
        fill: #13161f;
      }

      .cls-7 {
        fill: #0f1015;
      }

      .cls-8 {
        fill: #121212;
      }

      .cls-9 {
        fill: #080808;
      }

      .cls-10 {
        fill: #1f1f1f;
      }

      .cls-11 {
        fill: #e6e6e6;
        opacity: 0.1;
      }

      .cls-11, .cls-12, .cls-13, .cls-14, .cls-17 {
        isolation: isolate;
      }

      .cls-12, .cls-14, .cls-29 {
        opacity: 0.08;
      }

      .cls-12 {
        fill: url(#SVGID_4_);
      }

      .cls-13 {
        opacity: 0.22;
      }

      .cls-14 {
        fill: url(#SVGID_5_);
      }

      .cls-15 {
        fill: #10111a;
      }

      .cls-16 {
        fill: #1a1a1a;
      }

      .cls-17 {
        opacity: 0.25;
      }

      .cls-18 {
        opacity: 0.12;
      }

      .cls-19 {
        fill: #0b0b0f;
      }

      .cls-20 {
        fill: url(#SVGID_6_);
      }

      .cls-21 {
        fill: #0f0f0f;
      }

      .cls-22 {
        fill: #f66;
      }

      .cls-23 {
        fill: #7cb2e8;
      }

      .cls-24 {
        fill: #ff69f8;
      }

      .cls-25 {
        fill: #40e2a0;
      }

      .cls-26 {
        fill: #050505;
        stroke: #000;
        stroke-miterlimit: 10;
        stroke-width: 2px;
      }

      .cls-27 {
        fill: #f2f2f2;
      }

      .cls-28 {
        fill: #0a0a0a;
      }

      .cls-30 {
        fill: #ccc;
      }
    </style><style
       id="style1-1">
      .cls-1 {
        fill: #0f0f0f;
      }

      .cls-2 {
        fill: #121212;
      }

      .cls-3 {
        fill: #141414;
      }

      .cls-4 {
        fill: #f0f0f0;
      }

      .cls-5 {
        fill: #ededed;
      }

      .cls-6 {
        fill: #ebebeb;
      }
    </style></defs><sodipodi:namedview
     id="namedview1"
     pagecolor="#ffffff"
     bordercolor="#666666"
     borderopacity="1.0"
     inkscape:showpageshadow="2"
     inkscape:pageopacity="0.0"
     inkscape:pagecheckerboard="true"
     inkscape:deskcolor="#969696"
     showgrid="false"
     inkscape:zoom="1.36"
     inkscape:cx="450.73529"
     inkscape:cy="301.10294"
     inkscape:window-width="1920"
     inkscape:window-height="1009"
     inkscape:window-x="3832"
     inkscape:window-y="-8"
     inkscape:window-maximized="1"
     inkscape:current-layer="g1" /><g
     inkscape:groupmode="layer"
     inkscape:label="Image"
     id="g1"
     transform="matrix(1.2214983,0,0,1.2214983,-110.1311,100.00002)"
     style="display:inline"
     inkscape:export-filename="BTTF01\BTTF01.png"
     inkscape:export-xdpi="24"
     inkscape:export-ydpi="24"><g
       id="g191"
       inkscape:label="TRIGGERSPRESS"><g
         id="g40"
         inkscape:label="R2 TRIGGER"
         transform="matrix(0.90674428,0,0,0.90651424,-361.09612,-81.866688)"
         style="display:inline;fill:none;fill-opacity:0.75"><g
           id="g16"
           style="fill:none;fill-opacity:0.75"
           inkscape:label="g16"><path
             class="cls-8"
             d="m 697.2,90.8 c 0,0 -32.7,-3.2 -50.6,-3.2 -17.9,0 -48.4,2.4 -48.4,2.4 0,0 3.1,-44.7 4.8,-52 1.7,-7.3 7.7,-21.3 16.9,-27.9 C 629.1,3.5 631.8,0 642.6,0 c 10.8,0 25.4,6.4 34.6,21.4 9.2,15 20,69.4 20,69.4 z"
             id="path7"
             style="fill:#4b0087;fill-opacity:1" /><path
             class="cls-28"
             d="m 598.7,83.2 c 0,0 26.1,-4.4 49,-4.4 22.9,0 47.9,4.4 47.9,4.4 1,4.7 1.6,7.6 1.6,7.6 0,0 -32.7,-3.2 -50.6,-3.2 -17.9,0 -48.4,2.4 -48.4,2.4 0,0 0.2,-2.7 0.5,-6.8 z"
             id="path14"
             style="fill:#4b0087;fill-opacity:0.75" /></g><g
           class="cls-29"
           id="g39"
           style="fill:none;fill-opacity:0.75"
           inkscape:label="g39"><path
             class="cls-5"
             d="m 648.7,65.7 -3.2,2.6 a 6.71,6.71 0 0 0 -2,4.5 h 9.8 V 70.2 H 647 a 6.71,6.71 0 0 1 2.1,-1.9 12.47,12.47 0 0 0 2.7,-2.1 4.77,4.77 0 0 0 1.3,-3.3 4.22,4.22 0 0 0 -1.4,-3.3 5.13,5.13 0 0 0 -3.5,-1.2 c -3.1,0 -4.7,1.7 -4.7,5 h 2.7 q 0,-2.7 2.1,-2.7 a 1.83,1.83 0 0 1 2,2.1 c 0.2,1.1 -0.4,2 -1.6,2.9 z"
             id="path32"
             style="fill:#ffffff;fill-opacity:0.988235" /><path
             class="cls-5"
             d="m 631.1,67.2 h 3 c 1.5,0 2.3,0.6 2.4,1.9 0.1,1.3 0.2,2.5 0.3,3.8 h 3.3 v -0.4 c -0.5,-0.2 -0.7,-0.7 -0.7,-1.5 a 2.81,2.81 0 0 1 0.1,-0.8 v -0.7 a 3.56,3.56 0 0 0 -1.8,-3.5 3.25,3.25 0 0 0 2.2,-3.4 3.54,3.54 0 0 0 -1.3,-3 4.72,4.72 0 0 0 -3.2,-1 h -7.3 v 14.3 h 3 z m 0,-6.2 h 3.7 c 1.4,0 2.1,0.6 2.1,1.9 0,1.3 -0.8,1.9 -2.3,1.9 h -3.5 z"
             id="path33"
             style="fill:#ffffff;fill-opacity:0.991176" /></g></g><g
         id="g184"
         inkscape:label="L2 TRIGGER"
         style="display:inline"
         transform="matrix(0.90766111,0,0,0.90743082,-8.5928666,-81.866688)"
         inkscape:export-filename="triggers.svg"
         inkscape:export-xdpi="24"
         inkscape:export-ydpi="24"><g
           id="g174"
           style="display:inline"><path
             class="cls-8"
             d="m 108.8,90.8 c 0,0 32.7,-3.2 50.6,-3.2 17.9,0 48.3,2.4 48.3,2.4 0,0 -3.1,-44.7 -4.8,-52 C 201.2,30.7 195.2,16.7 186,10.1 176.8,3.5 174.2,0 163.4,0 152.6,0 138,6.4 128.8,21.4 c -9.2,15 -20,69.4 -20,69.4 z"
             id="path163"
             style="fill:#4b0087;fill-opacity:1" /><path
             class="cls-28"
             d="m 207.3,83.2 c 0,0 -26.1,-4.4 -49,-4.4 -22.9,0 -47.9,4.4 -47.9,4.4 -1,4.7 -1.6,7.6 -1.6,7.6 0,0 32.7,-3.2 50.6,-3.2 17.9,0 48.3,2.4 48.3,2.4 0,0 -0.1,-2.7 -0.4,-6.8 z"
             id="path170"
             style="fill:#4b0087;fill-opacity:0.75" /></g><g
           class="cls-29"
           id="g182"
           inkscape:label="L2"><path
             class="cls-5"
             d="m 173.3,65.7 -3.2,2.6 a 6.71,6.71 0 0 0 -2,4.5 h 9.8 v -2.6 h -6.2 a 6.71,6.71 0 0 1 2.1,-1.9 12.47,12.47 0 0 0 2.7,-2.1 4.77,4.77 0 0 0 1.3,-3.3 4.22,4.22 0 0 0 -1.4,-3.3 5.13,5.13 0 0 0 -3.5,-1.2 c -3.1,0 -4.7,1.7 -4.7,5 h 2.7 q 0,-2.7 2.1,-2.7 a 1.83,1.83 0 0 1 2,2.1 c 0.1,1.1 -0.5,2 -1.7,2.9 z"
             id="path178"
             inkscape:label="2"
             style="fill:#ffffff;fill-opacity:1" /><polygon
             class="cls-5"
             points="154.7,72.8 164.8,72.8 164.8,70.2 157.8,70.2 157.8,58.5 154.7,58.5 "
             id="polygon178"
             inkscape:label="L"
             style="fill:#ffffff;fill-opacity:1" /></g></g></g></g></svg>
